<?xml version="1.0" encoding="UTF-8" standalone="no"?>
<!DOCTYPE svg PUBLIC "-//W3C//DTD SVG 1.1//EN" "http://www.w3.org/Graphics/SVG/1.1/DTD/svg11.dtd">
<svg version="1.0" xmlns="http://www.w3.org/2000/svg"
 width="48.000000pt" height="48.000000pt" viewBox="0 0 48.000000 48.000000"
 preserveAspectRatio="xMidYMid meet" fill="#eeeee4">

<g transform="translate(0.000000,48.000000) scale(0.100000,-0.100000)"
fill="#000000" stroke="none">
<path d="M178 471 c-7 -2 -28 -15 -45 -29 -34 -25 -41 -55 -23 -97 7 -18 10
-16 24 16 14 34 46 60 46 38 0 -6 26 -8 70 -5 l71 5 17 -36 17 -36 11 39 c14
47 -5 94 -36 94 -10 0 -22 5 -25 11 -6 9 -98 10 -127 0z"/>
<path d="M410 373 c13 -18 25 -33 27 -33 8 0 -17 38 -33 51 -11 9 -9 2 6 -18z"/>
<path d="M50 359 c-12 -16 -21 -32 -18 -34 2 -2 13 12 26 31 28 42 21 45 -8 3z"/>
<path d="M263 343 c-19 -7 -15 -33 5 -33 21 1 54 25 45 33 -7 8 -32 8 -50 0z"/>
<path d="M146 331 c-3 -5 8 -11 25 -15 45 -9 49 -8 49 9 0 17 -65 22 -74 6z"/>
<path d="M451 294 c0 -11 3 -14 6 -6 3 7 2 16 -1 19 -3 4 -6 -2 -5 -13z"/>
<path d="M13 235 c0 -27 2 -38 4 -22 2 15 2 37 0 50 -2 12 -4 0 -4 -28z"/>
<path d="M463 230 c0 -25 2 -35 4 -22 2 12 2 32 0 45 -2 12 -4 2 -4 -23z"/>
<path d="M126 216 c-4 -19 -4 -47 0 -63 8 -29 64 -93 83 -93 6 0 11 -4 11 -9
0 -4 12 -6 28 -3 67 13 120 90 108 157 -6 31 -10 35 -22 24 -12 -10 -13 -9 -9
3 5 13 -7 15 -74 14 -81 -1 -107 -10 -81 -26 9 -6 10 -10 3 -10 -6 0 -18 9
-26 21 -14 19 -15 19 -21 -15z m134 -6 c0 -5 -9 -10 -20 -10 -11 0 -20 5 -20
10 0 6 9 10 20 10 11 0 20 -4 20 -10z"/>
<path d="M20 172 c0 -35 57 -115 95 -134 11 -5 5 3 -14 18 -18 15 -44 50 -57
78 -13 28 -24 45 -24 38z"/>
<path d="M430 125 c-33 -65 -96 -105 -183 -116 l-62 -8 62 3 c79 3 145 41 186
108 16 26 27 50 26 55 -2 5 -15 -14 -29 -42z"/>
</g>
</svg>
